<?xml version="1.0" standalone="no"?>
<!DOCTYPE svg PUBLIC "-//W3C//DTD SVG 20010904//EN"
 "http://www.w3.org/TR/2001/REC-SVG-20010904/DTD/svg10.dtd">
<svg version="1.0" xmlns="http://www.w3.org/2000/svg"
 width="900.000000pt" height="621.000000pt" viewBox="0 0 900.000000 621.000000"
 preserveAspectRatio="xMidYMid meet">

<g transform="translate(0.000000,621.000000) scale(0.100000,-0.100000)"
fill="#000000" stroke="none">
<path d="M4370 6203 c-984 -43 -1903 -568 -2450 -1400 -353 -536 -528 -1163
-506 -1808 27 -804 342 -1531 911 -2100 481 -481 1084 -781 1770 -880 76 -11
187 -13 460 -11 380 3 431 8 680 66 781 182 1481 685 1913 1372 213 340 351
698 429 1113 25 132 26 160 29 505 3 392 -1 455 -52 690 -57 267 -140 500
-264 745 -470 930 -1357 1558 -2380 1685 -141 18 -402 29 -540 23z m376 -63
c399 -32 752 -129 1109 -305 304 -149 545 -319 784 -550 417 -404 707 -911
841 -1470 61 -257 83 -445 83 -720 -1 -389 -57 -700 -195 -1082 -16 -46 -34
-83 -40 -83 -21 0 -211 156 -346 284 -86 82 -151 136 -163 136 -35 0 -88 -28
-232 -123 -379 -251 -468 -298 -889 -469 l-198 -80 -24 28 -24 29 30 43 c64
93 88 170 105 339 4 40 0 61 -15 90 -14 26 -22 64 -25 123 -7 115 -45 215
-150 393 -92 154 -196 301 -355 500 -56 70 -123 160 -150 200 -46 68 -102 162
-102 169 0 2 30 3 68 3 80 1 124 22 148 73 18 39 12 78 -22 141 -29 53 -32
135 -9 256 9 44 15 108 13 142 -2 57 0 65 36 117 21 31 85 109 143 173 159
179 195 239 214 352 23 147 -53 371 -126 371 -29 0 -54 -33 -62 -84 l-6 -38
-45 87 c-77 148 -243 304 -313 293 -33 -5 -46 -31 -33 -66 l11 -29 -61 20
c-127 41 -386 32 -458 -16 -43 -30 -45 -42 -9 -77 18 -19 26 -32 18 -34 -140
-41 -283 -119 -345 -190 -104 -119 -41 -170 181 -147 62 7 123 15 136 18 15 4
22 2 18 -4 -16 -25 74 -70 186 -93 43 -9 57 -16 57 -29 0 -23 20 -39 100 -84
164 -91 230 -175 230 -293 0 -34 -3 -76 -6 -93 -6 -27 -11 -31 -39 -31 -24 0
-34 6 -43 25 -7 14 -20 25 -31 25 -36 0 -261 -217 -261 -252 0 -4 -22 -8 -50
-8 -49 0 -49 0 -39 26 5 15 8 28 6 30 -12 12 -101 -33 -131 -67 -59 -65 -60
-119 -2 -173 19 -18 36 -45 39 -64 4 -19 14 -49 23 -69 21 -42 11 -113 -30
-215 -37 -92 -36 -100 17 -92 50 8 198 53 213 65 7 6 76 -58 195 -179 426
-431 527 -585 574 -873 8 -52 15 -115 15 -141 l0 -48 -38 0 c-55 0 -186 -35
-261 -70 -35 -17 -75 -30 -90 -30 -29 0 -75 -26 -136 -75 -30 -24 -60 -37
-118 -49 -75 -15 -130 -37 -141 -54 -3 -5 -29 -7 -57 -4 -40 4 -55 1 -63 -11
-10 -13 -20 -10 -76 24 -36 22 -74 38 -85 37 -28 -4 -31 -42 -6 -84 l21 -35
-22 6 c-151 46 -306 221 -367 415 -55 177 -79 484 -62 818 17 333 15 535 -9
625 -38 149 -127 294 -265 432 -91 91 -169 140 -185 115 -12 -19 -4 -52 27
-112 13 -27 19 -48 14 -48 -6 0 -13 5 -16 10 -25 41 -246 159 -390 208 -283
97 -480 116 -493 49 -6 -29 14 -43 126 -88 126 -50 140 -59 87 -59 -63 0 -253
-47 -322 -79 -126 -59 -211 -170 -266 -346 -73 -234 -117 -645 -97 -895 10
-121 26 -175 56 -187 33 -12 59 38 129 245 67 196 72 207 94 204 19 -3 50 24
160 135 167 170 211 196 336 197 91 1 153 -18 134 -40 -27 -33 -4 -68 177
-271 39 -44 87 -107 107 -141 41 -69 111 -241 103 -249 -3 -4 -6 -1 -6 5 0 6
-11 19 -25 28 -69 45 -111 -53 -83 -195 29 -148 134 -359 246 -497 l50 -62
-31 2 c-62 2 -45 -61 42 -156 71 -78 175 -129 371 -183 47 -13 75 -24 63 -24
-35 -1 -131 -40 -137 -56 -3 -8 3 -24 14 -37 29 -36 144 -31 346 15 219 50
263 54 303 31 17 -10 31 -21 31 -25 0 -4 -21 -15 -46 -25 -42 -16 -47 -16 -80
-1 -19 10 -38 17 -43 17 -5 0 -44 -28 -87 -61 -160 -125 -352 -231 -479 -264
-164 -43 -530 -81 -598 -62 -45 12 -69 77 -61 166 l7 71 -36 34 c-51 48 -123
70 -227 70 -96 -1 -180 -21 -231 -58 -19 -14 -49 -32 -66 -42 -38 -19 -44 -44
-10 -44 13 0 34 -9 46 -19 24 -21 30 -23 166 -46 116 -19 153 -30 177 -52 18
-16 48 -64 48 -77 0 -12 -112 -16 -170 -6 -83 14 -170 55 -282 131 -144 97
-199 120 -288 118 -54 -1 -85 3 -108 15 l-32 17 0 -31 c0 -28 -3 -30 -35 -30
-20 0 -46 7 -59 15 -21 14 -24 14 -30 0 -8 -21 4 -104 19 -135 21 -41 176
-184 227 -208 65 -32 131 -40 282 -34 199 7 339 -10 480 -59 l118 -40 196 65
c613 201 1001 296 1212 296 109 0 219 27 323 80 135 68 263 65 433 -10 34 -15
89 -47 123 -70 34 -22 70 -42 79 -42 9 -1 122 69 250 155 224 150 380 238 582
327 193 86 184 83 169 63 -8 -9 -28 -30 -45 -45 -17 -15 -34 -42 -38 -59 -13
-66 58 -208 158 -316 67 -72 100 -93 148 -93 18 0 42 -7 52 -15 11 -8 33 -15
48 -15 l29 0 -25 33 c-15 19 -26 47 -26 63 0 17 -20 81 -45 142 -25 62 -48
133 -51 157 -9 58 19 143 63 195 30 34 40 40 74 40 32 0 48 -7 84 -41 83 -77
179 -251 201 -366 27 -145 24 -160 -62 -287 -161 -233 -370 -463 -579 -635
-119 -98 -340 -248 -481 -325 -727 -399 -1603 -480 -2403 -221 -838 271 -1540
923 -1874 1740 -155 380 -227 750 -227 1165 0 276 28 495 97 765 51 200 112
364 213 570 218 447 522 813 923 1113 581 435 1322 649 2043 592z m-1957
-1677 c237 -57 485 -182 646 -324 28 -24 58 -50 68 -58 16 -13 -47 108 -97
187 -109 169 57 52 209 -148 157 -206 195 -368 173 -739 -19 -324 -16 -583 10
-779 26 -191 55 -288 119 -391 84 -135 185 -219 319 -266 52 -18 171 -101 161
-111 -2 -2 -41 -11 -88 -20 -46 -8 -138 -29 -204 -45 -154 -38 -284 -38 -261
-1 8 13 110 36 229 52 48 7 90 17 94 22 4 7 -3 9 -21 4 -33 -8 -275 36 -378
70 -89 29 -206 102 -259 161 -37 41 -56 79 -45 90 3 3 38 -13 77 -36 69 -39
116 -57 73 -26 -54 37 -252 320 -308 440 -71 149 -99 312 -61 361 15 19 15 18
36 -6 31 -37 80 -138 139 -288 82 -207 78 -184 -37 207 -25 85 -58 185 -74
222 -36 90 -127 221 -233 339 -86 95 -126 154 -113 167 11 11 55 -18 125 -82
81 -73 53 -28 -39 64 -68 68 -140 107 -217 117 -35 4 -49 10 -40 15 28 18 -14
9 -80 -17 -113 -45 -194 -106 -298 -225 -53 -60 -100 -109 -106 -109 -30 0 46
189 126 314 51 79 39 83 -14 4 -78 -117 -176 -334 -245 -543 -71 -216 -79
-235 -94 -220 -35 36 -39 493 -6 705 40 254 123 490 206 585 18 20 54 47 81
61 96 49 356 97 491 92 47 -2 84 -2 82 0 -1 2 -52 21 -111 42 -158 56 -297
115 -301 127 -10 30 116 23 266 -14z m1875 -230 c-30 -68 -124 -243 -130 -243
-2 0 -2 11 2 25 9 37 -19 32 -50 -7 l-26 -33 0 31 c0 53 54 145 129 217 89 86
109 89 75 10z m186 -34 c0 -45 -57 -146 -117 -206 -53 -54 -73 -64 -73 -39 0
37 -63 23 -82 -18 -6 -14 -15 -23 -19 -20 -17 10 -9 60 17 112 53 107 165 200
242 202 29 0 32 -3 32 -31z m-485 -59 c4 -6 1 -9 -6 -8 -16 4 -45 -72 -54
-139 -8 -59 -28 -63 -50 -10 -22 52 5 108 70 148 35 22 32 22 40 9z m32 -142
c24 -24 42 -32 81 -36 46 -4 50 -7 56 -33 8 -42 37 -49 121 -32 81 17 189 12
234 -11 36 -19 84 -87 101 -142 15 -52 -1 -92 -45 -113 -52 -25 -292 -13 -281
15 3 7 -15 1 -42 -15 -69 -42 -230 -104 -284 -109 l-47 -4 26 62 c13 34 31 90
38 124 9 43 15 56 20 43 8 -20 -18 -134 -41 -179 l-15 -29 28 7 c52 12 127 59
199 124 40 36 86 77 103 91 20 17 31 36 31 53 0 32 20 34 92 6 67 -25 76 -17
12 12 -56 25 -154 37 -154 19 0 -6 6 -10 13 -8 6 1 13 -10 15 -24 2 -20 -5
-33 -29 -54 -31 -25 -37 -27 -120 -23 -98 3 -128 18 -163 78 -29 48 -34 170
-10 246 l18 59 6 -48 c4 -35 14 -56 37 -79z m133 -323 c0 -7 -129 -90 -153
-98 -27 -10 -4 27 37 58 41 31 116 57 116 40z m202 -71 c9 -3 31 -31 49 -62
55 -99 191 -287 402 -556 84 -106 211 -295 246 -364 49 -97 83 -223 88 -333 5
-90 8 -106 22 -105 26 2 26 -79 1 -147 -27 -72 -107 -195 -173 -264 -58 -62
-111 -96 -176 -113 -44 -12 -243 -31 -250 -24 -2 2 2 10 9 19 19 23 7 18 -50
-20 -134 -90 -266 -129 -413 -123 -111 5 -121 13 -107 88 10 54 32 90 55 90 7
0 33 11 59 25 26 14 51 25 57 25 5 0 29 -18 53 -40 53 -49 121 -80 190 -87 48
-5 55 -3 88 25 43 39 91 127 112 208 20 77 21 263 2 317 l-14 38 49 25 c54 27
196 64 248 64 20 0 40 -7 48 -17 12 -16 14 -2 9 107 -7 194 -48 345 -133 489
-61 103 -240 311 -446 518 -105 106 -189 194 -187 196 37 33 94 40 162 21z
m2106 -1288 c15 -8 56 -45 92 -81 83 -85 246 -227 328 -284 63 -45 71 -58 50
-79 -7 -7 -14 -17 -14 -22 -1 -6 -2 -15 -3 -21 0 -7 -10 0 -22 15 -11 14 -35
34 -52 42 -18 9 -60 46 -95 83 -60 63 -56 46 7 -29 l29 -35 -26 -12 c-26 -11
-25 -11 19 -12 32 -1 55 -8 75 -23 l28 -22 -45 -11 -44 -12 58 -7 57 -7 -50
-97 c-27 -53 -61 -115 -75 -137 l-24 -40 -1 52 c-1 141 -76 310 -198 445 -93
103 -184 88 -250 -42 -31 -59 -33 -71 -29 -130 4 -44 20 -102 51 -182 25 -65
46 -126 46 -136 0 -66 -99 -52 -184 27 -68 63 -158 225 -158 285 0 64 55 112
144 124 24 3 35 8 27 13 -7 4 -28 5 -48 2 l-36 -4 24 20 c13 12 41 24 63 27
23 4 35 10 28 14 -8 5 8 22 46 48 53 35 105 82 92 82 -2 0 -19 -13 -37 -29
-45 -41 -124 -80 -281 -142 -247 -96 -525 -248 -786 -431 -78 -54 -155 -101
-170 -104 -24 -4 -35 1 -63 30 l-35 36 30 37 c51 62 115 98 331 183 212 84
465 205 602 287 42 25 155 98 251 161 147 96 198 127 218 131 2 1 15 -5 30
-13z m-1409 -611 l38 -35 -52 -52 c-29 -29 -54 -59 -56 -66 -3 -10 -23 -4 -76
21 -40 19 -82 38 -95 41 -20 6 -17 9 24 22 26 8 76 34 110 58 35 25 64 45 65
45 2 1 20 -15 42 -34z m-1061 9 l30 -6 -20 -34 c-11 -19 -22 -60 -25 -92 -5
-54 -3 -61 18 -76 l23 -16 -23 0 c-12 0 -115 -18 -228 -41 -222 -44 -323 -72
-739 -210 -149 -49 -284 -89 -301 -89 -16 0 -57 11 -92 25 -98 40 -195 57
-361 62 -115 4 -161 9 -179 20 -22 14 -23 14 -18 0 4 -11 -2 -17 -23 -22 -34
-7 -61 5 -89 41 -22 28 -28 17 -10 -18 11 -20 9 -21 -22 -14 -69 13 -126 51
-216 142 -100 100 -113 129 -71 158 49 34 133 10 283 -83 55 -34 135 -75 179
-92 75 -29 202 -59 249 -59 38 0 11 10 -74 26 -104 20 -212 61 -304 116 -38
23 -101 58 -139 79 -66 35 -68 37 -46 49 15 8 47 11 90 8 80 -6 166 -44 263
-118 146 -110 329 -164 445 -131 25 8 32 7 32 -4 0 -8 4 -17 10 -20 14 -9 1
53 -21 97 -30 59 -84 84 -224 104 -132 18 -165 32 -165 69 0 49 93 83 241 90
123 5 169 -7 214 -56 46 -51 47 -87 3 -125 l-33 -27 28 7 c25 6 27 4 27 -22 0
-52 39 -95 100 -111 102 -28 400 11 625 80 154 48 311 135 455 254 58 48 60
48 108 39z m-2229 -107 c12 -15 5 -27 -16 -27 -7 0 -13 9 -13 20 0 23 13 26
29 7z m441 -22 c0 -9 -9 -15 -22 -15 -22 1 -23 1 -4 15 25 19 26 19 26 0z
m-578 -27 c-9 -9 -12 -7 -12 12 0 19 3 21 12 12 9 -9 9 -15 0 -24z m4781 -88
c18 -22 7 -26 -24 -9 -11 5 -17 14 -14 20 9 14 19 11 38 -11z"/>
</g>
</svg>
